# xmcd
#
# Track frame offsets:
#	150
#	11176
#	26927
#	44612
#	59204
#	73030
#	88827
#	107743
#	122880
#	139017
#	154504
#	168954
#	184890
#	195427
#	223146
#
# Disc length: 3932 seconds
#
# Revision: 1
# Processed by: cddbd v1.4PL0 Copyright (c) Steve Scherf et al.
# Submitted via: audiograbber 1.80
#
DISCID=e50f5a0f
DTITLE=Nancy Apple - Outside The Lines
DYEAR=1900
DGENRE=
TTITLE0=Slide Me Some Sugar
TTITLE1=If Money's The Root of all Evil
TTITLE2=Fooled By The Heart
TTITLE3=My Exercise Program
TTITLE4=You're The Reason
TTITLE5=Why'd You Get So Gone
TTITLE6=Small Town Blues
TTITLE7=Time For You
TTITLE8=Time For You (w/ Jay Harrington)
TTITLE9=I'm Here To Collect
TTITLE10=Draw The Line
TTITLE11=Outside The Lines
TTITLE12=Shiri Shiri Naka Nake Jyoto Ne (Way Out Part - Japanese Tune)
TTITLE13=Truck Driver's Woman (Damn Near Live Cut)
TTITLE14=Data Track
EXTD=
EXTT0=
EXTT1=
EXTT2=
EXTT3=
EXTT4=
EXTT5=
EXTT6=
EXTT7=
EXTT8=
EXTT9=
EXTT10=
EXTT11=
EXTT12=
EXTT13=
EXTT14=
PLAYORDER=
